<svg version="1.1" xmlns="http://www.w3.org/2000/svg" xmlns:xlink="http://www.w3.org/1999/xlink" width="512.000000pt" height="512.000000pt" viewBox="0,0,256,256"><g fill="#ffffff" fill-rule="nonzero" stroke="none" stroke-width="1" stroke-linecap="butt" stroke-linejoin="miter" stroke-miterlimit="10" stroke-dasharray="" stroke-dashoffset="0" font-family="none" font-weight="none" font-size="none" text-anchor="none" style="mix-blend-mode: normal"><g transform="translate(0,-0.05731) scale(0.5,0.5)"><g transform="translate(0,512) scale(0.1,-0.1)"><path d="M845,5109c-666,-54 -845,-300 -845,-1164c0,-516 62,-777 225,-941c148,-149 328,-203 746,-225c305,-16 657,6 829,50c195,51 329,144 411,286c38,66 83,207 103,325c40,231 41,766 2,1000c-36,221 -92,349 -200,455c-131,131 -303,189 -630,215c-148,11 -494,11 -641,-1z"></path><path d="M3886,4898c-57,-16 -129,-91 -144,-150c-8,-30 -12,-143 -12,-317v-271h-285c-236,0 -292,-3 -323,-16c-79,-33 -132,-110 -132,-194c0,-88 38,-152 115,-193c38,-21 55,-22 332,-25l292,-3l3,-292c3,-277 4,-294 25,-332c40,-76 105,-115 188,-115c85,0 160,48 196,125c17,36 19,69 19,328v287h273c325,0 353,5 415,76c96,109 68,264 -59,328l-53,26h-288h-288v289v289l-28,53c-47,89 -149,134 -246,107z"></path><path d="M925,2340c-366,-20 -559,-82 -700,-224c-163,-164 -225,-425 -225,-941c0,-698 119,-975 472,-1096c154,-52 389,-79 697,-79c804,0 1060,152 1147,680c25,150 36,468 25,697c-20,406 -78,600 -221,743c-119,119 -281,180 -550,209c-138,14 -483,21 -645,11z"></path><path d="M3695,2340c-594,-31 -813,-196 -891,-670c-25,-151 -36,-476 -25,-701c22,-416 76,-596 226,-744c99,-99 198,-145 392,-184c190,-39 584,-53 859,-31c371,30 559,105 686,272c123,162 178,436 178,887c0,303 -27,552 -76,699c-70,211 -219,351 -434,412c-208,58 -538,79 -915,60z"></path></g></g></g></svg>