<svg version="1.1" xmlns="http://www.w3.org/2000/svg" xmlns:xlink="http://www.w3.org/1999/xlink" width="512.000000pt" height="512.000000pt" viewBox="0,0,256,256"><g fill="#ffffff" fill-rule="nonzero" stroke="none" stroke-width="1" stroke-linecap="butt" stroke-linejoin="miter" stroke-miterlimit="10" stroke-dasharray="" stroke-dashoffset="0" font-family="none" font-weight="none" font-size="none" text-anchor="none" style="mix-blend-mode: normal"><g transform="translate(0,0.02225) scale(0.5,0.5)"><g transform="translate(0,512) scale(0.1,-0.1)"><path d="M735,5026c-37,-17 -80,-62 -94,-99c-8,-20 -11,-739 -11,-2368c0,-1942 2,-2345 14,-2372c17,-43 78,-95 118,-102c18,-3 839,-4 1825,-3l1791,3l39,31c21,17 46,46 55,65c17,32 18,153 18,2106c0,1434 -3,2080 -11,2100c-15,42 -585,611 -634,634c-39,18 -96,19 -1560,18c-1248,0 -1525,-2 -1550,-13zM3730,4632c0,-366 -14,-352 353,-352h247v-2020v-2020h-1770h-1770v2320v2320h1470h1470zM4055,4600l160,-160h-163h-162v160c0,88 1,160 3,160c1,0 74,-72 162,-160z"></path><path d="M1605,4644c-94,-20 -235,-90 -317,-158c-114,-95 -203,-240 -239,-394c-29,-120 -23,-273 15,-387c75,-223 250,-398 473,-473c70,-24 93,-26 223,-26c131,0 153,2 225,27c113,37 197,90 286,177c138,137 208,292 216,485c4,90 1,126 -16,199c-93,388 -477,632 -866,550zM1888,4485c210,-50 378,-218 428,-431c33,-139 3,-311 -75,-433c-75,-117 -228,-223 -359,-250c-195,-40 -381,16 -523,158c-150,150 -202,340 -149,545c27,105 69,177 154,261c140,138 335,194 524,150z"></path><path d="M1705,4395c-14,-13 -25,-35 -25,-49c0,-20 -9,-29 -43,-44c-175,-77 -192,-303 -32,-402c19,-12 77,-32 130,-45c109,-27 142,-44 151,-80c8,-31 -9,-53 -53,-72c-77,-32 -166,-5 -199,59c-27,53 -44,68 -81,68c-40,0 -83,-37 -83,-73c0,-37 49,-125 88,-157c20,-17 56,-37 79,-46c33,-13 43,-22 43,-39c0,-12 9,-34 21,-49c16,-20 29,-26 59,-26c30,0 43,6 59,26c12,15 21,36 21,48c0,17 11,25 53,40c142,50 197,200 119,326c-37,60 -98,95 -213,124c-115,28 -137,39 -145,71c-22,88 149,128 203,48c39,-56 61,-73 97,-73c25,0 40,7 55,26c29,36 26,72 -8,126c-31,48 -69,80 -125,103c-28,12 -36,21 -36,41c0,35 -42,74 -80,74c-19,0 -40,-9 -55,-25z"></path><path d="M2730,4138c-58,-39 -70,-75 -70,-218c0,-140 11,-173 72,-210c28,-17 51,-20 161,-20c214,0 237,22 237,230c0,145 -9,179 -58,215c-23,17 -46,20 -167,23c-133,3 -142,2 -175,-20zM2970,3925v-75h-75h-75v75v75h75h75z"></path><path d="M3290,4107c-51,-26 -61,-93 -18,-129c18,-16 52,-18 379,-18c346,0 360,1 379,20c26,26 26,80 1,111l-19,24l-349,3c-266,2 -354,-1 -373,-11z"></path><path d="M3279,3880c-26,-15 -41,-62 -30,-93c22,-58 26,-58 409,-55c328,3 351,4 371,22c30,27 28,85 -2,114c-23,22 -27,22 -378,22c-204,0 -361,-5 -370,-10z"></path><path d="M2744,3580c-27,-11 -72,-65 -80,-95c-3,-13 -4,-79 -2,-148c3,-108 6,-130 24,-154c38,-52 76,-63 212,-63c132,0 157,7 202,55c24,25 25,33 28,170c4,161 -4,191 -61,225c-28,17 -50,20 -167,19c-74,0 -144,-4 -156,-9zM2970,3355v-75h-75h-75v75v75h75h75z"></path><path d="M3277,3530c-44,-35 -43,-93 2,-127c12,-9 108,-12 372,-13h356l21,23c32,34 30,89 -4,116c-26,20 -38,21 -374,21c-331,0 -348,-1 -373,-20z"></path><path d="M3273,3305c-26,-18 -36,-56 -23,-90c19,-51 49,-55 398,-55c329,0 373,5 392,40c16,31 11,79 -10,100c-19,19 -33,20 -378,20c-299,0 -361,-2 -379,-15z"></path><path d="M3266,2909c-20,-16 -26,-29 -26,-58c0,-49 27,-74 88,-81l46,-5l-232,-212l-232,-211l-346,149c-191,82 -359,149 -373,149c-33,0 -779,-563 -798,-602c-16,-31 -1,-83 27,-98c47,-25 70,-13 294,157c122,92 282,214 357,271l136,103l348,-151c192,-82 361,-150 376,-150c22,0 79,47 276,226l248,226l6,-41c7,-53 29,-75 74,-75c59,0 71,21 105,196c28,145 29,160 16,187c-9,16 -23,31 -31,35c-9,3 -88,6 -174,6c-145,0 -161,-2 -185,-21z"></path><path d="M3438,2436c-10,-7 -22,-25 -28,-40c-15,-39 -14,-1692 1,-1735c6,-17 19,-36 29,-41c11,-6 107,-10 218,-10c182,0 202,2 223,19l24,19l3,859c1,472 0,868 -3,881c-3,12 -14,31 -25,42c-19,19 -34,20 -222,20c-151,-1 -207,-4 -220,-14zM3750,1530v-760h-95h-95v760v760h95h95z"></path><path d="M1970,1980c-11,-11 -22,-30 -25,-42c-3,-13 -4,-308 -3,-656l3,-634l24,-19c21,-17 41,-19 221,-19c109,0 206,3 215,6c44,17 45,28 45,682c0,638 -2,672 -40,692c-11,6 -108,10 -219,10c-187,0 -202,-1 -221,-20zM2290,1305v-535h-95h-95v535v535h95h95z"></path><path d="M2703,1746l-28,-24l-3,-514c-1,-282 0,-523 3,-536c3,-12 14,-31 25,-42c19,-19 34,-20 224,-20c186,0 206,2 227,19l24,19v537v537l-28,24c-28,24 -31,24 -222,24c-191,0 -194,0 -222,-24zM3020,1190v-420h-95h-95v420v420h95h95z"></path><path d="M1239,1401l-24,-19v-367v-367l24,-19c21,-17 41,-19 223,-19c111,0 207,4 218,10c35,19 40,63 40,395c0,332 -5,376 -40,395c-11,6 -107,10 -218,10c-182,0 -202,-2 -223,-19zM1560,1015v-245h-95h-95v245v245h95h95z"></path></g></g></g></svg>